<svg id="Layer_1" data-name="Layer 1" xmlns="http://www.w3.org/2000/svg" viewBox="0 0 908.89 735.33"><defs><style>.cls-1{fill:blue;}.cls-2,.cls-3,.cls-4{fill:#00cbff;}.cls-3,.cls-4{stroke:blue;stroke-miterlimit:10;}.cls-3{stroke-width:5px;}.cls-4{stroke-linecap:round;stroke-width:7px;}.cls-5{fill:#f05253;}.cls-6{fill:red;}</style></defs><title>affordable</title><circle class="cls-1" cx="452.4" cy="150.14" r="38.41"/><circle class="cls-2" cx="452.4" cy="150.14" r="30.73"/><path class="cls-3" d="M364.52,466.06s-9.83,8.34-21.71,5.32c0,0-18.61-6.12-22.74-38.68,0,0-1.55-24.81-12.92-35.15,0,0,85.66-31.71,99.95,19.55S364.52,466.06,364.52,466.06Z" transform="translate(-54 -107.67)"/><path class="cls-3" d="M648.27,466.06s9.83,8.34,21.71,5.32c0,0,18.61-6.12,22.74-38.68,0,0,1.55-24.81,12.92-35.15,0,0-85.66-31.71-99.95,19.55S648.27,466.06,648.27,466.06Z" transform="translate(-54 -107.67)"/><rect class="cls-1" x="351.26" y="527.15" width="44.97" height="60.46" rx="12" ry="12"/><rect class="cls-1" x="512.53" y="527.15" width="44.97" height="60.46" rx="12" ry="12"/><ellipse class="cls-3" cx="455.12" cy="423.91" rx="161.27" ry="147.83"/><circle class="cls-1" cx="413.84" cy="380.98" r="8.4"/><circle class="cls-1" cx="490.95" cy="380.98" r="8.4"/><ellipse class="cls-1" cx="452" cy="435.13" rx="57.89" ry="47.18"/><circle class="cls-2" cx="434.9" cy="443.53" r="8.4"/><circle class="cls-2" cx="469.1" cy="443.53" r="8.4"/><path class="cls-1" d="M506.28,613.7a90.43,90.43,0,0,1-24.3-3.38A98,98,0,0,1,446.29,592a2.76,2.76,0,0,1,3.64-4.15h0a94.29,94.29,0,0,0,33.75,17.17,83.09,83.09,0,0,0,35.64,2.06c14.72-2.39,29.16-8.9,42.91-19.35a2.76,2.76,0,1,1,3.34,4.4c-14.52,11-29.84,17.91-45.51,20.43A86.72,86.72,0,0,1,506.28,613.7Z" transform="translate(-54 -107.67)"/><path class="cls-4" d="M481.87,408.17s25-12,53.17,0" transform="translate(-54 -107.67)"/><line class="cls-2" x1="670" y1="146.33" x2="761" y2="146.33"/><path class="cls-2" d="M814.69,258H723.56c-0.86,0-1.56-1.89-1.56-4s0.7-4,1.56-4h91.13c0.86,0,1.56,1.89,1.56,4S815.55,258,814.69,258Z" transform="translate(-54 -107.67)"/><line class="cls-2" x1="668" y1="119.33" x2="849" y2="119.33"/><path class="cls-2" d="M903,233H722a6,6,0,0,1,0-12H903A6,6,0,0,1,903,233Z" transform="translate(-54 -107.67)"/><line class="cls-2" x1="6" y1="464.33" x2="187" y2="464.33"/><path class="cls-2" d="M241,578H60a6,6,0,0,1,0-12H241A6,6,0,0,1,241,578Z" transform="translate(-54 -107.67)"/><line class="cls-2" x1="71" y1="47.33" x2="252" y2="47.33"/><path class="cls-2" d="M306,161H125a6,6,0,0,1,0-12H306A6,6,0,0,1,306,161Z" transform="translate(-54 -107.67)"/><line class="cls-2" x1="33" y1="731.33" x2="161" y2="731.33"/><path class="cls-2" d="M214.57,843h-128c-1.21,0-2.19-1.89-2.19-4s1-4,2.19-4h128c1.21,0,2.19,1.89,2.19,4S215.78,843,214.57,843Z" transform="translate(-54 -107.67)"/><line class="cls-2" x1="30" y1="700.33" x2="285" y2="700.33"/><path class="cls-2" d="M338.58,814H84.42c-4.65,0-8.42-2.69-8.42-6s3.77-6,8.42-6H338.58c4.65,0,8.42,2.69,8.42,6S343.23,814,338.58,814Z" transform="translate(-54 -107.67)"/><line class="cls-2" x1="874" y1="648.33" x2="746" y2="648.33"/><path class="cls-2" d="M800.43,760h128c1.21,0,2.19-1.89,2.19-4s-1-4-2.19-4h-128c-1.21,0-2.19,1.89-2.19,4S799.22,760,800.43,760Z" transform="translate(-54 -107.67)"/><line class="cls-2" x1="877" y1="617.33" x2="622" y2="617.33"/><path class="cls-2" d="M676.42,731H930.58c4.65,0,8.42-2.69,8.42-6s-3.77-6-8.42-6H676.42c-4.65,0-8.42,2.69-8.42,6S671.77,731,676.42,731Z" transform="translate(-54 -107.67)"/><circle class="cls-5" cx="893" cy="498.2" r="15.89"/><circle class="cls-5" cx="226.03" cy="617.6" r="15.89"/><circle class="cls-5" cx="626.75" cy="15.89" r="15.89"/><line class="cls-5" x1="111.21" y1="262.39" x2="92.66" y2="298.95"/><path class="cls-6" d="M145,409.81a4,4,0,0,1-1.79-5.3l18.44-36.33a4,4,0,0,1,7.13,3.62l-18.44,36.33A4,4,0,0,1,145,409.81Z" transform="translate(-54 -107.67)"/><line class="cls-5" x1="84.33" y1="271.18" x2="120.89" y2="289.73"/><path class="cls-6" d="M178.07,399a4,4,0,0,1-5.3,1.79l-36.33-18.44a4,4,0,0,1,3.62-7.13l36.33,18.44A4,4,0,0,1,178.07,399Z" transform="translate(-54 -107.67)"/><line class="cls-5" x1="827.21" y1="284.39" x2="808.66" y2="320.95"/><path class="cls-6" d="M861,431.81a4,4,0,0,1-1.79-5.3l18.44-36.33a4,4,0,0,1,7.13,3.62l-18.44,36.33A4,4,0,0,1,861,431.81Z" transform="translate(-54 -107.67)"/><line class="cls-5" x1="800.33" y1="293.18" x2="836.89" y2="311.73"/><path class="cls-6" d="M894.07,421a4,4,0,0,1-5.3,1.79l-36.33-18.44a4,4,0,0,1,3.62-7.13l36.33,18.44A4,4,0,0,1,894.07,421Z" transform="translate(-54 -107.67)"/></svg>