<svg id="Layer_1" data-name="Layer 1" xmlns="http://www.w3.org/2000/svg" viewBox="0 0 829 710"><defs><style>.cls-1{fill:#00cbff;}.cls-2,.cls-3,.cls-7{fill:none;}.cls-2,.cls-3,.cls-4,.cls-5{stroke:#000;}.cls-2,.cls-4,.cls-7{stroke-linecap:round;}.cls-2,.cls-4{stroke-linejoin:round;}.cls-2{stroke-width:7px;}.cls-3,.cls-5,.cls-7{stroke-miterlimit:10;}.cls-4,.cls-5,.cls-8{fill:#f05253;}.cls-4,.cls-5,.cls-7{stroke-width:8px;}.cls-6{fill:blue;}.cls-7{stroke:blue;}.cls-9{fill:red;}</style></defs><title>fast</title><path class="cls-1" d="M703.86,551.95c0,0.09,0,.39,0,0.91H659.21l-0.12-1.3a165.65,165.65,0,0,0-331.07,0l-0.18,1.3h-44.6c0-.52,0-0.66,0-0.75,3.29-113.32,96.19-204.65,210.3-204.65S700.57,438.63,703.86,551.95Z" transform="translate(-55 -103)"/><path class="cls-2" d="M659.21,552.86h44.66c0-.52,0-0.82,0-0.91-3.29-113.32-96.19-204.49-210.3-204.49s-207,91.33-210.3,204.65c0,0.09,0,.23,0,0.75h44.6" transform="translate(-55 -103)"/><path class="cls-2" d="M328,551.56a165.65,165.65,0,0,1,331.07,0" transform="translate(-55 -103)"/><line class="cls-3" x1="648.81" y1="448.56" x2="648.81" y2="448.56"/><polygon class="cls-4" points="413.12 411.82 584.26 447.25 404.51 452.83 413.12 411.82"/><circle class="cls-5" cx="411.09" cy="432.25" r="21.85"/><rect class="cls-6" x="364.94" y="494.6" width="127.57" height="11.41" rx="5.7" ry="5.7"/><rect class="cls-6" x="397.24" y="518.59" width="62.97" height="11.41" rx="5.7" ry="5.7"/><path class="cls-7" d="M300.36,539.37s14.52-103.71,88.16-142.09" transform="translate(-55 -103)"/><path class="cls-7" d="M575.55,380.35s56,25.58,87.81,80.2" transform="translate(-55 -103)"/><line class="cls-1" x1="644" y1="706" x2="735" y2="706"/><path class="cls-1" d="M789.69,813H698.56c-0.86,0-1.56-1.89-1.56-4s0.7-4,1.56-4h91.13c0.86,0,1.56,1.89,1.56,4S790.55,813,789.69,813Z" transform="translate(-55 -103)"/><line class="cls-1" x1="642" y1="679" x2="823" y2="679"/><path class="cls-1" d="M878,788H697a6,6,0,0,1,0-12H878A6,6,0,0,1,878,788Z" transform="translate(-55 -103)"/><line class="cls-1" x1="628" y1="196" x2="719" y2="196"/><path class="cls-1" d="M773.69,303H682.56c-0.86,0-1.56-1.89-1.56-4s0.7-4,1.56-4h91.13c0.86,0,1.56,1.89,1.56,4S774.55,303,773.69,303Z" transform="translate(-55 -103)"/><line class="cls-1" x1="626" y1="169" x2="807" y2="169"/><path class="cls-1" d="M862,278H681a6,6,0,0,1,0-12H862A6,6,0,0,1,862,278Z" transform="translate(-55 -103)"/><line class="cls-1" x1="260" y1="669" x2="132" y2="669"/><path class="cls-1" d="M187.43,776h128c1.21,0,2.19-1.89,2.19-4s-1-4-2.19-4h-128c-1.21,0-2.19,1.89-2.19,4S186.22,776,187.43,776Z" transform="translate(-55 -103)"/><line class="cls-1" x1="263" y1="638" x2="8" y2="638"/><path class="cls-1" d="M63.42,747H317.58c4.65,0,8.42-2.69,8.42-6s-3.77-6-8.42-6H63.42c-4.65,0-8.42,2.69-8.42,6S58.77,747,63.42,747Z" transform="translate(-55 -103)"/><line class="cls-1" x1="165" y1="37" x2="293" y2="37"/><path class="cls-1" d="M347.57,144h-128c-1.21,0-2.19-1.89-2.19-4s1-4,2.19-4h128c1.21,0,2.19,1.89,2.19,4S348.78,144,347.57,144Z" transform="translate(-55 -103)"/><line class="cls-1" x1="162" y1="6" x2="417" y2="6"/><path class="cls-1" d="M471.58,115H217.42c-4.65,0-8.42-2.69-8.42-6s3.77-6,8.42-6H471.58c4.65,0,8.42,2.69,8.42,6S476.23,115,471.58,115Z" transform="translate(-55 -103)"/><circle class="cls-8" cx="619.98" cy="20.67" r="15.89"/><circle class="cls-8" cx="784.61" cy="500.3" r="15.89"/><line class="cls-8" x1="88.21" y1="327.07" x2="69.66" y2="363.63"/><path class="cls-9" d="M123,469.81a4,4,0,0,1-1.79-5.3l18.44-36.33a4,4,0,0,1,7.13,3.62l-18.44,36.33A4,4,0,0,1,123,469.81Z" transform="translate(-55 -103)"/><line class="cls-8" x1="61.33" y1="335.85" x2="97.89" y2="354.41"/><path class="cls-9" d="M156.07,459a4,4,0,0,1-5.3,1.79l-36.33-18.44a4,4,0,0,1,3.62-7.13l36.33,18.44A4,4,0,0,1,156.07,459Z" transform="translate(-55 -103)"/></svg>