<svg id="Layer_1" data-name="Layer 1" xmlns="http://www.w3.org/2000/svg" viewBox="0 0 281.85 187.02"><defs><style>.cls-1{fill:#0303ff;}</style></defs><title>logo</title><path class="cls-1" d="M73.58,108.57a78.6,78.6,0,0,0-13,1,62.16,62.16,0,0,0-27.84,11.56A55.39,55.39,0,0,0,19.16,136.1a59.59,59.59,0,0,0-5.47,11.17,78.09,78.09,0,0,0-4.61,27.41c0,45.71,23.42,68.83,64.51,68.83,39.23,0,64.5-24.4,64.5-68.83C138.08,131.7,112,108.57,73.58,108.57Zm0,119.82c-29,0-45.2-19.67-45.2-53.72C28.39,143,44,123.5,73.58,123.5c27.52,0,45.2,19.49,45.2,51.17C118.78,208.36,103,228.39,73.58,228.39Z" transform="translate(-9.07 -56.49)"/><path class="cls-1" d="M290.93,174.67c0,44.43-25.27,68.83-64.5,68.83-41.09,0-64.51-23.13-64.51-68.83,0-41.33,26.5-66.1,64.51-66.1C264.84,108.58,290.93,131.7,290.93,174.67Zm-64.5,53.72c29.38,0,45.2-20,45.2-53.72,0-31.68-17.67-51.17-45.2-51.17-29.58,0-45.2,19.48-45.2,51.17C181.23,208.72,197.46,228.39,226.42,228.39Z" transform="translate(-9.07 -56.49)"/><rect class="cls-1" x="118.19" y="88.63" width="44.26" height="14.63"/><rect class="cls-1" x="53.19" y="94.5" width="19.32" height="50.1" rx="9.66" ry="9.66"/><rect class="cls-1" x="207.69" y="94.5" width="19.32" height="50.1" rx="9.66" ry="9.66"/><path class="cls-1" d="M115.46,73.61a33.74,33.74,0,0,1-1.76,9,6.41,6.41,0,0,1-12.16-4A20.64,20.64,0,0,0,102.66,73a3.4,3.4,0,0,0-2.21-3.41,3.68,3.68,0,0,0-4.24.92L60.58,109.62,24.41,149.31a6.37,6.37,0,0,1-4.74,2.09,6.45,6.45,0,0,1-4.31-1.65,6.28,6.28,0,0,1-1.68-2.48,59.59,59.59,0,0,1,5.47-11.17l13.58-14.92,54-59.25a16.45,16.45,0,0,1,18.63-4.14A16.12,16.12,0,0,1,115.46,73.61Z" transform="translate(-9.07 -56.49)"/><path class="cls-1" d="M185.21,73.61a33.74,33.74,0,0,0,1.76,9,6.41,6.41,0,0,0,12.16-4A20.64,20.64,0,0,1,198,73a3.4,3.4,0,0,1,2.21-3.41,3.68,3.68,0,0,1,4.24.92l35.62,39.11,36.17,39.69A6.37,6.37,0,0,0,281,151.4a6.45,6.45,0,0,0,4.31-1.65,6.28,6.28,0,0,0,1.68-2.48,59.59,59.59,0,0,0-5.47-11.17l-13.58-14.92-54-59.25a16.45,16.45,0,0,0-18.63-4.14A16.12,16.12,0,0,0,185.21,73.61Z" transform="translate(-9.07 -56.49)"/></svg>