<svg id="Layer_1" data-name="Layer 1" xmlns="http://www.w3.org/2000/svg" viewBox="0 0 782.53 703"><defs><style>.cls-1{fill:#fff;}.cls-2{fill:#0303ff;}.cls-3{fill:#00cbff;}.cls-4{fill:#f05253;}.cls-5{fill:red;}</style></defs><title>quality</title><rect class="cls-1" x="290.92" y="168.11" width="287.2" height="411.22"/><path d="M682.84,698H386.2V277.39H682.84V698Zm-287.2-9.44H673.4V286.83H395.64V688.61Z" transform="translate(-100 -114)"/><rect class="cls-1" x="319.48" y="142" width="287.2" height="411.22"/><path d="M711.4,671.94H414.76V251.28H711.4V671.94ZM424.2,662.5H702V260.72H424.2V662.5Z" transform="translate(-100 -114)"/><polygon class="cls-2" points="391.69 201.49 390.61 202.57 366.43 226.74 355.39 215.7 358.48 214.49 366.43 222.44 384.61 204.26 390.61 201.92 391.69 201.49"/><path class="cls-2" d="M493.84,317.64l-3.22,3.22-22,22a2.84,2.84,0,0,1-.82.57,3,3,0,0,1-2.67,0,3.07,3.07,0,0,1-.81-0.57l-11-11.05a3,3,0,0,1,4.31-4.3l0.94,0.94,8,8,18.18-18.18,2.77-2.77,0.34-.34,1.81-1.81A3,3,0,1,1,493.84,317.64Z" transform="translate(-100 -114)"/><path class="cls-2" d="M487.72,315l-0.34.42-2.77,2.8-18.18,18.2-8-7.95-0.94-.93a3,3,0,0,0-4.31,4.3l11,10.82a1.13,1.13,0,0,0,.81.34h2.67a1.1,1.1,0,0,0,.82-0.34l22.1-21.91,0.31-.12V315h-3.28Z" transform="translate(-100 -114)"/><line class="cls-2" x1="424" y1="214" x2="568" y2="214"/><path class="cls-2" d="M668,331H524.26a3,3,0,0,1,0-6H668A3,3,0,0,1,668,331Z" transform="translate(-100 -114)"/><polygon class="cls-2" points="391.69 250.87 390.61 251.95 366.43 276.12 355.39 265.08 358.48 263.86 366.43 271.82 384.61 253.64 390.61 251.29 391.69 250.87"/><path class="cls-2" d="M493.84,367l-3.22,3.22-22,22a2.84,2.84,0,0,1-.82.57,3,3,0,0,1-2.67,0,3.07,3.07,0,0,1-.81-0.57l-11-11.05a3,3,0,1,1,4.31-4.3l0.94,0.94,8,8,18.18-18.18,2.77-2.77,0.34-.34,1.81-1.81A3,3,0,1,1,493.84,367Z" transform="translate(-100 -114)"/><path class="cls-2" d="M487.72,365l-0.34.11-2.77,2.65-18.18,18.12-8-8-0.94-1a3,3,0,1,0-4.31,4.29l11,11.12a1.7,1.7,0,0,0,.81.65h2.67a1.65,1.65,0,0,0,.82-0.65l22.1-22.07L491,370v-5h-3.28Z" transform="translate(-100 -114)"/><line class="cls-2" x1="424" y1="264" x2="568" y2="264"/><path class="cls-2" d="M668,381H524.26a3,3,0,0,1,0-6H668A3,3,0,0,1,668,381Z" transform="translate(-100 -114)"/><polygon class="cls-2" points="391.69 302.43 390.61 303.5 366.43 327.68 355.39 316.63 358.48 315.42 366.43 323.38 384.61 305.2 390.61 302.85 391.69 302.43"/><path class="cls-2" d="M493.84,418.58l-3.22,3.22-22,22a2.84,2.84,0,0,1-.82.57,3,3,0,0,1-2.67,0,3.07,3.07,0,0,1-.81-0.57l-11-11.05a3,3,0,0,1,4.31-4.3l0.94,0.94,8,8,18.18-18.18,2.77-2.77,0.34-.34,1.81-1.81A3,3,0,1,1,493.84,418.58Z" transform="translate(-100 -114)"/><path class="cls-2" d="M487.72,416l-0.34.39-2.77,2.79-18.18,18.19-8-8-0.94-.93a3,3,0,0,0-4.31,4.3l11,10.85a1.17,1.17,0,0,0,.81.37h2.67a1.14,1.14,0,0,0,.82-0.37l22.1-21.93,0.31-.14V416h-3.28Z" transform="translate(-100 -114)"/><line class="cls-2" x1="424" y1="315" x2="568" y2="315"/><path class="cls-2" d="M668,432H524.26a3,3,0,0,1,0-6H668A3,3,0,0,1,668,432Z" transform="translate(-100 -114)"/><polygon class="cls-2" points="391.69 350.36 390.61 351.43 366.43 375.61 355.39 364.56 358.48 363.35 366.43 371.31 384.61 353.12 390.61 350.78 391.69 350.36"/><path class="cls-2" d="M493.84,466.51l-3.22,3.22-22,22a2.84,2.84,0,0,1-.82.57,3,3,0,0,1-2.67,0,3.07,3.07,0,0,1-.81-0.57l-11-11.05a3,3,0,0,1,4.31-4.3l0.94,0.94,8,8,18.18-18.18,2.77-2.77,0.34-.34,1.81-1.81A3,3,0,0,1,493.84,466.51Z" transform="translate(-100 -114)"/><path class="cls-2" d="M487.72,464l-0.34.35-2.77,2.77L466.43,485.3l-8-8-0.94-.94a3,3,0,0,0-4.31,4.3l11,10.88a1.22,1.22,0,0,0,.81.41h2.67a1.19,1.19,0,0,0,.82-0.41l22.1-21.95,0.31-.16V464h-3.28Z" transform="translate(-100 -114)"/><line class="cls-2" x1="424" y1="365" x2="568" y2="365"/><path class="cls-2" d="M668,482H524.26a3,3,0,0,1,0-6H668A3,3,0,0,1,668,482Z" transform="translate(-100 -114)"/><polygon class="cls-2" points="391.69 403.37 390.61 404.44 366.43 428.62 355.39 417.57 358.48 416.36 366.43 424.32 384.61 406.13 390.61 403.79 391.69 403.37"/><path class="cls-2" d="M493.84,519.52l-3.22,3.22-22,22a2.84,2.84,0,0,1-.82.57,3,3,0,0,1-2.67,0,3.07,3.07,0,0,1-.81-0.57l-11-11.05a3,3,0,0,1,4.31-4.3l0.94,0.94,8,8,18.18-18.18,2.77-2.77,0.34-.34,1.81-1.81A3,3,0,1,1,493.84,519.52Z" transform="translate(-100 -114)"/><path class="cls-2" d="M487.72,517l-0.34.35-2.77,2.77-18.18,18.19-8-8-0.94-.94a3,3,0,0,0-4.31,4.3l11,10.88a1.21,1.21,0,0,0,.81.4h2.67a1.18,1.18,0,0,0,.82-0.4l22.1-21.95,0.31-.15V517h-3.28Z" transform="translate(-100 -114)"/><line class="cls-2" x1="424" y1="416" x2="568" y2="416"/><path class="cls-2" d="M668,533H524.26a3,3,0,0,1,0-6H668A3,3,0,0,1,668,533Z" transform="translate(-100 -114)"/><polygon class="cls-2" points="391.69 453.47 390.61 454.55 366.43 478.72 355.39 467.68 358.48 466.46 366.43 474.42 384.61 456.24 390.61 453.89 391.69 453.47"/><path class="cls-2" d="M493.84,569.62l-3.22,3.22-22,22a2.84,2.84,0,0,1-.82.57,3,3,0,0,1-2.67,0,3.07,3.07,0,0,1-.81-0.57l-11-11.05a3,3,0,0,1,4.31-4.3l0.94,0.94,8,8,18.18-18.18,2.77-2.77,0.34-.34,1.81-1.81A3,3,0,1,1,493.84,569.62Z" transform="translate(-100 -114)"/><path class="cls-2" d="M487.72,567l-0.34.41-2.77,2.8-18.18,18.2-8-8-0.94-.93a3,3,0,0,0-4.31,4.3l11,10.83a1.14,1.14,0,0,0,.81.35h2.67a1.12,1.12,0,0,0,.82-0.35l22.1-21.92,0.31-.13V567h-3.28Z" transform="translate(-100 -114)"/><line class="cls-2" x1="424" y1="466" x2="568" y2="466"/><path class="cls-2" d="M668,583H524.26a3,3,0,0,1,0-6H668A3,3,0,0,1,668,583Z" transform="translate(-100 -114)"/><line class="cls-3" x1="321" y1="6" x2="671" y2="6"/><path class="cls-3" d="M771,126H421a6,6,0,0,1,0-12H771A6,6,0,0,1,771,126Z" transform="translate(-100 -114)"/><line class="cls-3" x1="321" y1="669" x2="671" y2="669"/><path class="cls-3" d="M771,789H421a6,6,0,0,1,0-12H771A6,6,0,0,1,771,789Z" transform="translate(-100 -114)"/><line class="cls-3" x1="435" y1="699" x2="657" y2="699"/><path class="cls-3" d="M757.19,817H534.81a4,4,0,0,1,0-8H757.19A4,4,0,0,1,757.19,817Z" transform="translate(-100 -114)"/><line class="cls-3" x1="8" y1="347" x2="99" y2="347"/><path class="cls-3" d="M198.69,465H107.56c-0.86,0-1.56-1.89-1.56-4s0.7-4,1.56-4h91.13c0.86,0,1.56,1.89,1.56,4S199.55,465,198.69,465Z" transform="translate(-100 -114)"/><line class="cls-3" x1="323" y1="31" x2="545" y2="31"/><path class="cls-3" d="M645.19,149H422.81a4,4,0,0,1,0-8H645.19A4,4,0,0,1,645.19,149Z" transform="translate(-100 -114)"/><line class="cls-3" x1="6" y1="316" x2="187" y2="316"/><path class="cls-3" d="M287,436H106a6,6,0,0,1,0-12H287A6,6,0,0,1,287,436Z" transform="translate(-100 -114)"/><circle class="cls-4" cx="183" cy="99.48" r="15.89"/><circle class="cls-4" cx="757.92" cy="42.89" r="15.89"/><circle class="cls-4" cx="183" cy="675" r="15.89"/><line class="cls-4" x1="69.21" y1="435.07" x2="50.66" y2="471.63"/><path class="cls-5" d="M149,588.81a4,4,0,0,1-1.79-5.3l18.44-36.33a4,4,0,0,1,7.13,3.62l-18.44,36.33A4,4,0,0,1,149,588.81Z" transform="translate(-100 -114)"/><line class="cls-4" x1="42.33" y1="443.85" x2="78.89" y2="462.41"/><path class="cls-5" d="M182.07,578a4,4,0,0,1-5.3,1.79l-36.33-18.44a4,4,0,0,1,3.62-7.13l36.33,18.44A4,4,0,0,1,182.07,578Z" transform="translate(-100 -114)"/><line class="cls-4" x1="778.53" y1="452.77" x2="737.53" y2="452.86"/><path class="cls-5" d="M834,566.87a4,4,0,0,1,3.91-4l40.74-.09a4,4,0,0,1,0,8l-40.74.09A4,4,0,0,1,834,566.87Z" transform="translate(-100 -114)"/><line class="cls-4" x1="758.48" y1="432.81" x2="758.57" y2="473.81"/><path class="cls-5" d="M858.58,591.39a4,4,0,0,1-4-3.91l-0.09-40.74a4,4,0,0,1,8,0l0.09,40.74A4,4,0,0,1,858.58,591.39Z" transform="translate(-100 -114)"/></svg>